<mxfile host="app.diagrams.net" agent="Mozilla/5.0 (Windows NT 10.0; Win64; x64) AppleWebKit/537.36 (KHTML, like Gecko) Chrome/133.0.0.0 Safari/537.36 Edg/133.0.0.0" version="25.0.3">
  <diagram name="Page-1" id="nh9C89oyDZXrQD6fVJ2X">
    <mxGraphModel dx="1683" dy="2273" grid="1" gridSize="10" guides="1" tooltips="1" connect="1" arrows="1" fold="1" page="1" pageScale="1" pageWidth="850" pageHeight="1100" math="0" shadow="0">
      <root>
        <mxCell id="0" />
        <mxCell id="1" parent="0" />
        <mxCell id="PTDOOUBUL5pwRvwMeehj-1" value="Player" style="shape=umlActor;verticalLabelPosition=bottom;verticalAlign=top;html=1;outlineConnect=0;" vertex="1" parent="1">
          <mxGeometry x="80" y="230" width="30" height="60" as="geometry" />
        </mxCell>
        <mxCell id="PTDOOUBUL5pwRvwMeehj-7" value="" style="rounded=1;whiteSpace=wrap;html=1;" vertex="1" parent="1">
          <mxGeometry x="190" y="100" width="150" height="330" as="geometry" />
        </mxCell>
        <mxCell id="PTDOOUBUL5pwRvwMeehj-5" value="&lt;font style=&quot;font-size: 15px;&quot;&gt;Create New Game&lt;/font&gt;" style="ellipse;whiteSpace=wrap;html=1;" vertex="1" parent="1">
          <mxGeometry x="205" y="120" width="120" height="80" as="geometry" />
        </mxCell>
        <mxCell id="PTDOOUBUL5pwRvwMeehj-8" value="&lt;font style=&quot;font-size: 15px;&quot;&gt;Choose Saved Games&lt;/font&gt;" style="ellipse;whiteSpace=wrap;html=1;" vertex="1" parent="1">
          <mxGeometry x="205" y="220" width="120" height="80" as="geometry" />
        </mxCell>
        <mxCell id="PTDOOUBUL5pwRvwMeehj-9" value="&lt;font style=&quot;font-size: 15px;&quot;&gt;Exit Game&lt;/font&gt;" style="ellipse;whiteSpace=wrap;html=1;" vertex="1" parent="1">
          <mxGeometry x="205" y="320" width="120" height="80" as="geometry" />
        </mxCell>
        <mxCell id="PTDOOUBUL5pwRvwMeehj-10" value="" style="rounded=1;whiteSpace=wrap;html=1;" vertex="1" parent="1">
          <mxGeometry x="480" y="-290" width="580" height="1110" as="geometry" />
        </mxCell>
      </root>
    </mxGraphModel>
  </diagram>
</mxfile>
